<svg xmlns="http://www.w3.org/2000/svg" viewBox="0 0 100 125" fill="none" x="0px" y="0px"><path d="M20.8877 55.904L47.323 10.4539C48.3347 8.71437 49.8327 7.25679 51.7375 6.60755C55.1722 5.43683 57.0063 5.93548 58.1521 8.29979C59.1581 10.3756 58.585 12.8201 57.482 14.846L35.1283 55.904L37.5835 57.3771L49.8633 34.0879C51.1154 31.7132 53.2681 29.6583 55.9526 29.6426C58.6507 29.6268 59.972 31.0316 60.7182 34.2352C61.0979 35.8658 60.8273 37.5692 60.2055 39.1237L50.3507 63.7607L52.8059 65.2338L61.2976 45.0155C62.4486 42.2751 64.797 39.6525 67.7453 40.0301C69.8184 40.2955 70.7888 41.7874 71.2603 44.829C71.4382 45.9762 71.3093 47.1474 71.0039 48.2674L64.1 73.5816L66.5552 74.5637L73.1136 55.357C73.3239 54.7411 73.5832 54.1318 74.042 53.6702C74.7303 52.9778 75.9992 52.1134 77.8489 52.4666C81.2864 53.1231 81.2864 56.395 81.2864 56.395L80.3043 66.707C79.6033 73.3486 78.0541 82.811 72.4475 88.804C68.3868 93.1434 64.4953 94.3987 55.5186 94.676C55.0215 94.6913 54.5164 94.665 54.0236 94.5983C38.4695 92.4912 30.9079 87.7986 20.9317 72.7019C20.2473 71.6662 19.7724 70.5013 19.5729 69.276C18.7129 63.993 19.0179 60.5042 20.8877 55.904Z" fill="#dedee1"/><path d="M31.1367 13.3001L37.5835 22.0218L31.6905 32.3338L19.9059 17.1114C19.9059 17.1114 16.9075 13.4367 18.4324 11.2188C19.7607 9.28696 23.4308 9.51133 26.1261 9.99095C28.1727 10.3552 29.9011 11.6284 31.1367 13.3001Z" fill="#dedee1"/></svg>